<svg id="Capa_1" enable-background="new 0 0 512 512" height="512" viewBox="0 0 512 512" width="512" xmlns="http://www.w3.org/2000/svg"><g><g><path d="m490.8 234.97c-14.89-13.89-27.41-29.81-37.49-47.5-22.33-39.21-63.59-71.47-114.64-91.01v319.09c51.07-19.55 92.35-51.83 114.67-91.06 9.96-17.52 22.71-33.73 37.44-47.49 7.46-6.97 11.22-16.21 11.22-21s-3.73-14.06-11.2-21.03z" fill="#ff9256"/><path d="m338.67 96.46v-.01c-25.21-9.66-52.81-16.21-81.7-18.97v357.04c28.89-2.75 56.49-9.31 81.7-18.97 23.89-48.11 37.33-102.29 37.33-159.55s-13.44-111.43-37.33-159.54z" fill="#ffda8f"/><path d="m256.97 77.49v-.01c-10.18-.98-20.52-1.48-30.97-1.48-16.25 0-32.11 1.25-47.43 3.6v352.8c15.32 2.35 31.18 3.6 47.43 3.6 10.45 0 20.79-.5 30.97-1.48v-.01c37.08-49.91 59.03-111.69 59.03-178.51s-21.95-128.6-59.03-178.51z" fill="#ff9256"/><path d="m178.57 79.6c47.58 43.89 77.43 106.72 77.43 176.4s-29.85 132.51-77.43 176.4c-20.43-3.12-39.91-8.22-58.14-14.93 27.49-18.94 45.57-50.57 45.57-86.47 0-16.19-3.97-31.33-10.53-45h-6.11c-20.79 35.72-59.06 60-103.36 60h-36c0-36.05 16.22-68 41.39-90-25.17-22-41.39-53.95-41.39-90h36c44.3 0 82.57 24.28 103.36 60h6.11c6.56-13.67 10.53-28.81 10.53-45 0-35.9-18.08-67.53-45.57-86.47 18.23-6.71 37.71-11.81 58.14-14.93z" fill="#ffda8f"/></g><g><circle cx="442" cy="256" r="10"/><path d="m497.621 227.658c-14.026-13.085-26.011-28.272-35.622-45.137-43.962-77.197-144.957-116.521-235.999-116.521-38.912 0-75.903 6.955-109.024 19.146-3.506 1.291-6 4.428-6.467 8.134-.467 3.707 1.171 7.365 4.248 9.485 25.825 17.793 41.243 47.04 41.243 78.235 0 9.872-1.646 19.688-4.905 29.313-24.166-33.64-62.711-54.313-105.095-54.313h-36c-5.523 0-10 4.477-10 10 0 33.496 13.32 65.734 36.875 90-23.555 24.266-36.875 56.504-36.875 90 0 5.523 4.477 10 10 10h36c42.413 0 80.947-20.698 105.095-54.313 3.259 9.625 4.905 19.441 4.905 29.313 0 31.195-15.418 60.442-41.244 78.235-3.076 2.12-4.715 5.778-4.248 9.485s2.961 6.844 6.467 8.134c34.8 12.809 71.94 19.146 109.025 19.146 112.491 0 200.457-54.038 236.033-116.568 9.434-16.594 21.734-32.197 35.574-45.125 8.474-7.918 14.393-19.558 14.393-28.307 0-8.789-5.913-20.443-14.379-28.342zm-322.337 194.082c-11.692-1.984-23.231-4.671-34.5-8.032 22.316-21.518 35.216-51.292 35.216-82.708 0-16.809-3.874-33.404-11.514-49.326-1.664-3.468-5.169-5.674-9.016-5.674h-6.11c-3.56 0-6.852 1.893-8.643 4.97-20.055 34.458-55.464 55.03-94.717 55.03h-25.529c2.608-27.648 15.951-53.635 37.5-72.471 2.172-1.899 3.419-4.644 3.419-7.529s-1.247-5.63-3.419-7.529c-21.549-18.836-34.891-44.823-37.5-72.471h25.529c39.253 0 74.662 20.572 94.717 55.03 1.791 3.077 5.083 4.97 8.643 4.97h6.11c3.846 0 7.352-2.206 9.016-5.674 7.64-15.922 11.514-32.517 11.514-49.326 0-31.416-12.9-61.19-35.216-82.708 11.267-3.361 22.807-6.047 34.5-8.032 44.995 43.29 70.716 103.411 70.716 165.74s-25.721 122.451-70.716 165.74zm102.605-.045c6.044-9.521 11.584-19.361 16.535-29.438 2.436-4.957.392-10.95-4.565-13.385-4.957-2.437-10.95-.393-13.385 4.565-7.1 14.45-15.48 28.385-24.916 41.503-8.456.69-17.027 1.06-25.558 1.06-8.619 0-17.252-.381-25.831-1.11 41.021-44.614 65.831-104.099 65.831-168.89 0-64.736-24.775-124.238-65.83-168.89 8.577-.729 17.211-1.11 25.83-1.11 8.533 0 17.106.37 25.568 1.061 35.62 49.481 54.432 107.791 54.432 168.939 0 14.97-1.156 30.006-3.436 44.689-.847 5.458 2.89 10.568 8.348 11.416 5.494.851 10.573-2.925 11.416-8.348 2.436-15.694 3.672-31.762 3.672-47.757 0-59.322-16.566-116.144-48.086-165.687 18.456 3.087 36.372 7.809 53.514 14.109 22.939 47.493 34.572 98.466 34.572 151.578 0 53.115-11.632 104.088-34.567 151.577-17.167 6.311-35.092 11.034-53.544 14.118zm206.065-152.003c-15.515 14.493-28.739 31.266-39.306 49.853-17.555 30.856-47.67 57.438-86.133 76.436 18.25-44.35 27.485-91.317 27.485-139.981 0-48.657-9.237-95.623-27.486-139.972 38.438 18.985 68.544 45.552 86.108 76.393 10.611 18.623 23.853 35.398 39.356 49.861 5.613 5.237 7.98 11.851 8.022 13.707-.046 1.864-2.426 8.452-8.046 13.703z"/><circle cx="302" cy="346" r="10"/></g></g></svg>